<svg width="20" height="20" viewBox="0 0 20 20" fill="none" xmlns="http://www.w3.org/2000/svg">
<path d="M5.5 15.5C6.05228 15.5 6.5 15.9477 6.5 16.5C6.5 17.0523 6.05228 17.5 5.5 17.5C4.94772 17.5 4.5 17.0523 4.5 16.5C4.5 15.9477 4.94772 15.5 5.5 15.5Z" fill="#141413"/>
<path fill-rule="evenodd" clip-rule="evenodd" d="M15.5 13.5C16.6046 13.5 17.5 14.3954 17.5 15.5C17.5 16.6046 16.6046 17.5 15.5 17.5C14.3954 17.5 13.5 16.6046 13.5 15.5C13.5 14.3954 14.3954 13.5 15.5 13.5ZM15.5 14.5C14.9477 14.5 14.5 14.9477 14.5 15.5C14.5 16.0523 14.9477 16.5 15.5 16.5C16.0523 16.5 16.5 16.0523 16.5 15.5C16.5 14.9477 16.0523 14.5 15.5 14.5Z" fill="#141413"/>
<path d="M8.5 2.5C8.77609 2.50006 9 2.7239 9 3V7.29102L12.0371 4.25391C12.2324 4.05873 12.5489 4.05873 12.7441 4.25391C12.9393 4.44915 12.9393 4.76571 12.7441 4.96094L9.70996 7.99512H14.0049L14.1055 8.00488C14.3334 8.05142 14.5049 8.25341 14.5049 8.49512C14.5048 8.73672 14.3333 8.93779 14.1055 8.98438L14.0049 8.99512H9.71387L12.751 12.0322L12.8154 12.1104C12.9435 12.3044 12.9218 12.5684 12.751 12.7393C12.58 12.9101 12.3161 12.9311 12.1221 12.8027L12.0439 12.7393L9 9.69531V14C9 14.2761 8.77609 14.4999 8.5 14.5C8.22391 14.4999 8 14.2761 8 14V9.70508L4.96582 12.7393C4.77059 12.9343 4.45402 12.9344 4.25879 12.7393C4.06363 12.544 4.06368 12.2275 4.25879 12.0322L7.2959 8.99512H3.00488C2.72884 8.99505 2.50495 8.77116 2.50488 8.49512C2.50488 8.21902 2.7288 7.99518 3.00488 7.99512H7.2998L4.26562 4.96094L4.20215 4.88281C4.07378 4.68877 4.09483 4.42487 4.26562 4.25391C4.43643 4.0831 4.70047 4.06144 4.89453 4.18945L4.97266 4.25391L8 7.28125V3C8 2.7239 8.22391 2.50007 8.5 2.5Z" fill="#141413"/>
<path d="M16.5 4.5C17.0523 4.5 17.5 4.94772 17.5 5.5C17.5 6.05228 17.0523 6.5 16.5 6.5C15.9477 6.5 15.5 6.05228 15.5 5.5C15.5 4.94772 15.9477 4.5 16.5 4.5Z" fill="#141413"/>
</svg>
