<svg width="24" height="24" viewBox="0 0 24 24" fill="none" xmlns="http://www.w3.org/2000/svg">
<path d="M11.25 16.5C11.6642 16.5 12 16.8358 12 17.25C12 17.6642 11.6642 18 11.25 18H4.75C4.33581 18 4.00003 17.6642 4 17.25C4 16.8358 4.33579 16.5 4.75 16.5H11.25ZM19.25 11.25C19.6642 11.25 20 11.5858 20 12C20 12.4142 19.6642 12.75 19.25 12.75H4.75C4.33581 12.75 4.00003 12.4142 4 12C4 11.5858 4.33579 11.25 4.75 11.25H19.25ZM19.25 6C19.6642 6 20 6.33579 20 6.75C20 7.16418 19.6642 7.5 19.25 7.5H4.75C4.33581 7.5 4.00004 7.16418 4 6.75C4 6.33579 4.33579 6 4.75 6H19.25Z" fill="#141413"/>
</svg>
