<svg width="20" height="20" viewBox="0 0 20 20" fill="none" xmlns="http://www.w3.org/2000/svg">
<path d="M9.375 13.875C9.65099 13.8752 9.875 14.099 9.875 14.375C9.87497 14.651 9.65098 14.8748 9.375 14.875H3.95801C3.68188 14.875 3.45804 14.6511 3.45801 14.375C3.45801 14.0989 3.68187 13.875 3.95801 13.875H9.375ZM16.041 9.5C16.3172 9.5 16.541 9.72386 16.541 10C16.541 10.2761 16.3171 10.5 16.041 10.5H3.95801C3.68188 10.5 3.45804 10.2761 3.45801 10C3.45801 9.72386 3.68187 9.5 3.95801 9.5H16.041ZM16.041 5.125C16.3172 5.125 16.541 5.34886 16.541 5.625C16.541 5.90111 16.3171 6.125 16.041 6.125H3.95801C3.68189 6.125 3.45804 5.90111 3.45801 5.625C3.45801 5.34886 3.68187 5.125 3.95801 5.125H16.041Z" fill="#141413"/>
</svg>
